<svg xmlns="http://www.w3.org/2000/svg" xmlns:xlink="http://www.w3.org/1999/xlink" viewBox="0,0,256,256" width="480px" height="480px" fill-rule="nonzero"><g transform="translate(-8.96,-8.96) scale(1.07,1.07)"><g fill="#f6f6f6" fill-rule="nonzero" stroke="none" stroke-width="1" stroke-linecap="butt" stroke-linejoin="miter" stroke-miterlimit="10" stroke-dasharray="" stroke-dashoffset="0" font-family="none" font-weight="none" font-size="none" text-anchor="none" style="mix-blend-mode: normal"><path d="M8.37383,247.62617v-239.25234h239.25234v239.25234z" id="bgRectangle"></path></g><g fill="none" fill-rule="nonzero" stroke="none" stroke-width="1" stroke-linecap="butt" stroke-linejoin="none" stroke-miterlimit="10" stroke-dasharray="" stroke-dashoffset="0" font-family="none" font-weight="none" font-size="none" text-anchor="none" style="mix-blend-mode: normal"><path transform="scale(5.33333,5.33333)" d="M25.74805,3.5c1.36359,0 2.5,1.13641 2.5,2.5v4.57617l3.04883,-3.12695c0.9671,-0.99177 2.61169,-0.99303 3.58008,0l2.25195,2.30859c0.00065,0 0.0013,0 0.00195,0c0.95944,0.98411 0.92843,2.60871 -0.06641,3.55664l-3.19336,3.03906h4.5957c1.36359,0 2.5,1.1364 2.5,2.5v3.22852c0,1.36359 -1.13641,2.5 -2.5,2.5h-4.70703l3.31445,3.2207c0.98373,0.95661 1.00034,2.58015 0.0332,3.55469l-2.24609,2.26367c-0.96387,0.97131 -2.58226,0.9715 -3.54687,0.00195l-1.96484,-1.97656c-0.40123,-0.37472 -0.56573,-0.93868 -0.42886,-1.47035c0.13686,-0.53167 0.55322,-0.94611 1.08551,-1.08052c0.53229,-0.13441 1.09549,0.03268 1.46836,0.43563l1.61133,1.61914l1.53516,-1.54883l-3.83594,-3.72656c-0.75756,-0.73639 -0.92329,-1.87261 -0.57422,-2.73242c0.34907,-0.85981 1.25995,-1.56055 2.31641,-1.56055h5.43945v-2.22852h-5.34766c-1.06169,0 -1.97674,-0.70738 -2.32227,-1.57227c-0.34552,-0.86488 -0.16966,-2.00665 0.59961,-2.73828l3.73242,-3.55273l-1.54102,-1.58008l-3.54883,3.64062c-0.73719,0.75604 -1.87358,0.91954 -2.73242,0.57031c-0.85884,-0.34923 -1.55859,-1.26033 -1.55859,-2.31641v-5.30469h-2.57422c-0.23782,0.69735 -0.94684,1.11877 -1.67305,0.99442c-0.72621,-0.12435 -1.25462,-0.75767 -1.24687,-1.49442c0,-1.36359 1.13641,-2.5 2.5,-2.5zM16.70898,7.43945l3.10547,3.19141c0.20811,-0.72133 0.91741,-1.17775 1.66013,-1.06827c0.74273,0.10949 1.29015,0.75116 1.28127,1.50186v0.73828c0,1.05664 -0.7013,1.96757 -1.56055,2.31641c-0.85924,0.34884 -1.99549,0.18468 -2.73242,-0.57227l-3.54687,-3.64844l-1.54687,1.5918l3.74219,3.56836c0.00065,0.00065 0.0013,0.0013 0.00195,0.00195c0.76784,0.73256 0.93973,1.8741 0.59375,2.73828c-0.34598,0.86419 -1.259,1.57031 -2.32031,1.57031h-5.35352v2.23047h5.42969c1.05646,0 1.96734,0.69878 2.31641,1.55859c0.34907,0.85981 0.18334,1.99603 -0.57422,2.73242c0,0.00065 0,0.0013 0,0.00195l-3.83203,3.72266l1.53906,1.53906l7.31641,-7.35156c0.96461,-0.96955 2.58031,-0.96955 3.54492,0l1.86914,1.87891c0.40123,0.37472 0.56573,0.93868 0.42886,1.47035c-0.13686,0.53167 -0.55322,0.94611 -1.08551,1.08052c-0.53229,0.13441 -1.09549,-0.03268 -1.46836,-0.43563l-1.51562,-1.52344l-7.31641,7.35156c-0.96328,0.96826 -2.57493,0.97195 -3.54102,0.00586l-2.25195,-2.25391c-0.97322,-0.97322 -0.96277,-2.60203 0.02539,-3.56055l3.3125,-3.2168h-4.69727c-1.36359,0 -2.5,-1.1364 -2.5,-2.5v-3.23047c0,-1.36359 1.13641,-2.5 2.5,-2.5h4.60547l-3.20508,-3.05469c-0.99295,-0.94614 -1.02429,-2.5697 -0.06836,-3.55273l2.25781,-2.32227c0.48382,-0.49736 1.13878,-0.74609 1.79297,-0.74609c0.65419,0 1.30915,0.24873 1.79297,0.74609zM25.73438,29.08984c1.36359,0 2.5,1.13641 2.5,2.5v10.41016c0,1.36359 -1.13641,2.5 -2.5,2.5h-3.49609c-1.36359,0 -2.5,-1.13641 -2.5,-2.5v-2.06445c-0.00765,-0.54095 0.27656,-1.04412 0.74381,-1.31683c0.46725,-0.27271 1.04514,-0.27271 1.51238,0c0.46725,0.27271 0.75146,0.77588 0.74381,1.31683v1.56445h2.49609v-9.41016h-2.49609v2.1875c0.00765,0.54095 -0.27656,1.04412 -0.74381,1.31683c-0.46725,0.27271 -1.04514,0.27271 -1.51238,0c-0.46725,-0.27271 -0.75146,-0.77588 -0.74381,-1.31683v-2.6875c0,-1.36359 1.13641,-2.5 2.5,-2.5z" id="strokeMainSVG" fill="#1b1717" stroke="#1b1717" stroke-linejoin="round"></path><g transform="scale(5.33333,5.33333)" fill="#000000" stroke="none" stroke-linejoin="miter"><path d="M22.25391,3.5c-1.36359,0 -2.5,1.13641 -2.5,2.5c-0.00775,0.73674 0.52066,1.37006 1.24687,1.49442c0.72621,0.12435 1.43524,-0.29707 1.67305,-0.99442h2.57422v5.30469c0,1.05608 0.69975,1.96718 1.55859,2.31641c0.85884,0.34923 1.99523,0.18573 2.73242,-0.57031l3.54883,-3.64062l1.54102,1.58008l-3.73242,3.55274c-0.76927,0.73163 -0.94513,1.8734 -0.59961,2.73828c0.34552,0.86488 1.26058,1.57227 2.32227,1.57227h5.34766v2.22852h-5.43945c-1.05646,0 -1.96734,0.70074 -2.31641,1.56055c-0.34907,0.85981 -0.18334,1.99603 0.57422,2.73242l3.83594,3.72656l-1.53516,1.54883l-1.61133,-1.61914c-0.37287,-0.40295 -0.93606,-0.57004 -1.46836,-0.43563c-0.53229,0.13441 -0.94865,0.54885 -1.08551,1.08052c-0.13686,0.53167 0.02763,1.09563 0.42886,1.47035l1.96484,1.97656c0.96461,0.96955 2.583,0.96936 3.54688,-0.00195l2.24609,-2.26367c0.96714,-0.97454 0.95052,-2.59808 -0.0332,-3.55469l-3.31445,-3.2207h4.70703c1.36359,0 2.5,-1.13641 2.5,-2.5v-3.22852c0,-1.36359 -1.13641,-2.5 -2.5,-2.5h-4.5957l3.19336,-3.03906c0.99484,-0.94793 1.02585,-2.57253 0.06641,-3.55664c-0.00065,0 -0.0013,0 -0.00195,0l-2.25195,-2.30859c-0.96838,-0.99303 -2.61298,-0.99177 -3.58008,0l-3.04883,3.12695v-4.57617c0,-1.36359 -1.13641,-2.5 -2.5,-2.5zM14.91602,6.69336c-0.65419,0 -1.30915,0.24873 -1.79297,0.74609l-2.25781,2.32227c-0.95593,0.98304 -0.92459,2.6066 0.06836,3.55273l3.20508,3.05469h-4.60547c-1.36359,0 -2.5,1.1364 -2.5,2.5v3.23047c0,1.3636 1.13641,2.5 2.5,2.5h4.69727l-3.3125,3.2168c-0.98816,0.95851 -0.99861,2.58733 -0.02539,3.56055l2.25195,2.25391c0.96609,0.96609 2.57774,0.9624 3.54102,-0.00586l7.31641,-7.35156l1.51563,1.52344c0.37287,0.40295 0.93606,0.57004 1.46836,0.43563c0.53229,-0.13441 0.94865,-0.54885 1.08551,-1.08052c0.13686,-0.53167 -0.02763,-1.09563 -0.42886,-1.47035l-1.86914,-1.87891c-0.96461,-0.96955 -2.58031,-0.96955 -3.54492,0l-7.31641,7.35156l-1.53906,-1.53906l3.83203,-3.72266c0,-0.00065 0,-0.0013 0,-0.00195c0.75756,-0.73639 0.92329,-1.87261 0.57422,-2.73242c-0.34907,-0.85981 -1.25994,-1.55859 -2.31641,-1.55859h-5.42969v-2.23047h5.35352c1.06131,0 1.97433,-0.70613 2.32031,-1.57031c0.34598,-0.86419 0.17409,-2.00572 -0.59375,-2.73828c-0.00065,-0.00065 -0.0013,-0.0013 -0.00195,-0.00195l-3.74219,-3.56836l1.54688,-1.5918l3.54687,3.64844c0.73693,0.75694 1.87318,0.9211 2.73242,0.57227c0.85924,-0.34884 1.56055,-1.25977 1.56055,-2.31641v-0.73828c0.00888,-0.7507 -0.53855,-1.39237 -1.28127,-1.50186c-0.74273,-0.10949 -1.45202,0.34693 -1.66013,1.06827l-3.10547,-3.19141c-0.48382,-0.49736 -1.13878,-0.74609 -1.79297,-0.74609zM22.23828,29.08984c-1.36359,0 -2.5,1.13641 -2.5,2.5v2.6875c-0.00765,0.54095 0.27656,1.04412 0.74381,1.31683c0.46725,0.27271 1.04514,0.27271 1.51238,0c0.46725,-0.27271 0.75146,-0.77588 0.74381,-1.31683v-2.1875h2.49609v9.41016h-2.49609v-1.56445c0.00765,-0.54095 -0.27656,-1.04412 -0.74381,-1.31683c-0.46725,-0.27271 -1.04514,-0.27271 -1.51238,0c-0.46725,0.27271 -0.75146,0.77588 -0.74381,1.31683v2.06445c0,1.36359 1.13641,2.5 2.5,2.5h3.49609c1.36359,0 2.5,-1.13641 2.5,-2.5v-10.41016c0,-1.36359 -1.13641,-2.5 -2.5,-2.5z"></path></g></g></g></svg>